# Blender v2.79 (sub 0) OBJ File: ''
# www.blender.org
mtllib player.mtl
o Cube
v -0.156740 -0.126215 -1.880879
v 0.156740 -0.126215 -1.880879
v 0.156740 -0.126215 1.880879
v -0.156740 -0.126215 1.880878
v -0.156740 0.527912 -1.880880
v 0.156740 0.527912 -1.880877
v 0.156740 0.527912 1.880879
v -0.156740 0.527912 1.880879
vn 0.5773 -0.5773 -0.5773
vn -0.5773 -0.5773 0.5773
vn -0.5773 -0.5773 -0.5773
vn -0.5773 0.5773 0.5773
vn 0.5773 0.5773 -0.5773
vn -0.5773 0.5773 -0.5773
vn 0.5773 -0.5773 0.5773
vn 0.5773 0.5773 0.5773
usemtl Material.001
s 1
f 2//1 4//2 1//3
f 8//4 6//5 5//6
f 5//6 2//1 1//3
f 6//5 3//7 2//1
f 3//7 8//4 4//2
f 1//3 8//4 5//6
f 2//1 3//7 4//2
f 8//4 7//8 6//5
f 5//6 6//5 2//1
f 6//5 7//8 3//7
f 3//7 7//8 8//4
f 1//3 4//2 8//4
