# Blender v2.79 (sub 0) OBJ File: 'ground.blend'
# www.blender.org
mtllib score_p2.mtl
o Cube.003
v 12.809136 0.113946 -5.291504
v 12.809136 0.172717 -5.291504
v 12.809136 0.113946 -6.220264
v 12.809136 0.172717 -6.220264
v 12.991057 0.113946 -5.291504
v 12.991057 0.172717 -5.291504
v 12.991057 0.113946 -6.220264
v 12.991057 0.172717 -6.220264
vn -1.0000 0.0000 0.0000
vn 0.0000 0.0000 -1.0000
vn 1.0000 0.0000 0.0000
vn 0.0000 0.0000 1.0000
vn 0.0000 -1.0000 0.0000
vn 0.0000 1.0000 0.0000
usemtl Material.008
s off
f 2//1 3//1 1//1
f 4//2 7//2 3//2
f 8//3 5//3 7//3
f 6//4 1//4 5//4
f 7//5 1//5 3//5
f 4//6 6//6 8//6
f 2//1 4//1 3//1
f 4//2 8//2 7//2
f 8//3 6//3 5//3
f 6//4 2//4 1//4
f 7//5 5//5 1//5
f 4//6 2//6 6//6
